<?xml version="1.0" encoding="UTF-8" standalone="no"?>
<!-- Created with Inkscape (http://www.inkscape.org/) -->

<svg
   xmlns:dc="http://purl.org/dc/elements/1.1/"
   xmlns:cc="http://creativecommons.org/ns#"
   xmlns:rdf="http://www.w3.org/1999/02/22-rdf-syntax-ns#"
   xmlns:svg="http://www.w3.org/2000/svg"
   xmlns="http://www.w3.org/2000/svg"
   version="1.1"
   width="64"
   height="64"
   id="svg3316">
  <defs
     id="defs3318" />
  <metadata
     id="metadata3321">
    <rdf:RDF>
      <cc:Work
         rdf:about="">
        <dc:format>image/svg+xml</dc:format>
        <dc:type
           rdf:resource="http://purl.org/dc/dcmitype/StillImage" />
        <dc:title></dc:title>
      </cc:Work>
    </rdf:RDF>
  </metadata>
  <g
     id="layer1">
    <g
       transform="matrix(1.169168,0,0,-1.1517136,43.50521,14.444317)"
       id="g28"
       style="fill:#ffffff">
      <path
         d="m 0,0 c 0,0.709 0.575,1.284 1.285,1.284 l 4.328,0 C 6.323,1.284 6.898,0.709 6.898,0 l 0,-4.425 c 0,-0.709 -0.575,-1.284 -1.285,-1.284 l -4.328,0 C 0.575,-5.709 0,-5.134 0,-4.425 L 0,0 z m -9.712,-5.542 c 2.89,0 5.501,-1.185 7.381,-3.092 l 12.889,0 0,5.259 10e-4,0 c 0,4.422 -3.586,8.007 -8.008,8.007 l -21.882,0 0,-10.095 -1.642,0 0,10.095 -0.948,0 c -0.062,0 -0.123,-0.003 -0.185,-0.004 l 0,-10.091 -1.642,0 0,9.883 c -0.398,-0.093 -0.784,-0.215 -1.156,-0.364 l 0,-9.519 -1.642,0 0,8.622 c -2.046,-1.45 -3.383,-3.835 -3.383,-6.534 l 0,-5.259 12.837,0 c 1.879,1.907 4.49,3.092 7.38,3.092"
         id="path30"
         style="fill:#ffffff;fill-opacity:1;fill-rule:nonzero;stroke:none" />
    </g>
    <g
       transform="matrix(1.169168,0,0,-1.1517136,32.181229,39.551443)"
       id="g70"
       style="fill:#ffffff">
      <path
         d="m 0,0 c -3.258,0 -5.898,2.641 -5.898,5.898 0,3.257 2.64,5.898 5.898,5.898 3.258,0 5.898,-2.641 5.898,-5.898 C 5.898,2.641 3.258,0 0,0 m 5.229,11.897 c -0.585,0.513 -1.246,0.942 -1.963,1.269 -1.004,0.456 -2.119,0.713 -3.292,0.713 -1.173,0 -2.287,-0.257 -3.292,-0.713 -0.717,-0.327 -1.378,-0.756 -1.963,-1.269 -1.669,-1.464 -2.726,-3.61 -2.726,-5.999 0,-4.401 3.58,-7.981 7.981,-7.981 4.401,0 7.981,3.58 7.981,7.981 0,2.389 -1.057,4.535 -2.726,5.999"
         id="path72"
         style="fill:#ffffff;fill-opacity:1;fill-rule:nonzero;stroke:none" />
    </g>
    <g
       transform="matrix(1.169168,0,0,-1.1517136,17.876,55.981329)"
       id="g94"
       style="fill:#ffffff">
      <path
         d="m 0,0 24.472,0 c 4.423,0 8.007,3.585 8.007,8.007 l 0,18.156 -11.827,0 c 1.205,-1.693 1.917,-3.763 1.917,-5.999 0,-5.722 -4.638,-10.36 -10.36,-10.36 -5.721,0 -10.359,4.638 -10.359,10.36 0,2.236 0.711,4.306 1.917,5.999 l -11.775,0 0,-18.156 C -8.008,3.585 -4.422,0 0,0"
         id="path96"
         style="fill:#ffffff;fill-opacity:1;fill-rule:nonzero;stroke:none" />
    </g>
  </g>
</svg>
