<?xml version="1.0" encoding="UTF-8" standalone="no"?>
<!-- Created with Inkscape (http://www.inkscape.org/) -->

<svg
   xmlns:dc="http://purl.org/dc/elements/1.1/"
   xmlns:cc="http://creativecommons.org/ns#"
   xmlns:rdf="http://www.w3.org/1999/02/22-rdf-syntax-ns#"
   xmlns:svg="http://www.w3.org/2000/svg"
   xmlns="http://www.w3.org/2000/svg"
   version="1.1"
   width="64"
   height="64"
   id="svg3393">
  <defs
     id="defs3395" />
  <metadata
     id="metadata3398">
    <rdf:RDF>
      <cc:Work
         rdf:about="">
        <dc:format>image/svg+xml</dc:format>
        <dc:type
           rdf:resource="http://purl.org/dc/dcmitype/StillImage" />
        <dc:title></dc:title>
      </cc:Work>
    </rdf:RDF>
  </metadata>
  <g
     id="layer1">
    <g
       transform="matrix(1.1101996,0,0,-1.1457824,18.157858,36.430228)"
       id="g136"
       style="fill:#ffffff">
      <path
         d="m 0,0 c 0.597,-0.244 1.132,-0.009 1.305,0.651 0.12,0.457 0.405,1.612 0.532,2.091 0.175,0.654 0.106,0.883 -0.375,1.452 -1.049,1.239 -1.72,2.841 -1.72,5.111 0,6.584 4.927,12.478 12.828,12.478 6.996,0 10.841,-4.275 10.841,-9.985 0,-7.512 -3.325,-13.853 -8.261,-13.853 -2.725,0 -4.765,2.254 -4.112,5.019 0.784,3.301 2.301,6.863 2.301,9.245 0,2.133 -1.145,3.912 -3.514,3.912 -2.787,0 -5.025,-2.883 -5.025,-6.744 0,-2.459 0.831,-4.123 0.831,-4.123 0,0 -2.852,-12.081 -3.351,-14.197 -0.996,-4.213 -0.15,-9.379 -0.078,-9.901 0.042,-0.309 0.439,-0.383 0.618,-0.149 0.258,0.335 3.576,4.432 4.704,8.526 0.32,1.158 1.833,7.161 1.833,7.161 0.906,-1.726 3.551,-3.247 6.365,-3.247 8.376,0 14.058,7.636 14.058,17.857 0,7.728 -6.546,14.925 -16.495,14.925 -12.378,0 -18.62,-8.875 -18.62,-16.276 C -5.335,5.472 -3.639,1.485 0,0"
         id="path138"
         style="fill:#ffffff;fill-opacity:1;fill-rule:nonzero;stroke:none" />
    </g>
  </g>
</svg>
