<?xml version="1.0" encoding="UTF-8" standalone="no"?>
<!-- Created with Inkscape (http://www.inkscape.org/) -->

<svg
   xmlns:dc="http://purl.org/dc/elements/1.1/"
   xmlns:cc="http://creativecommons.org/ns#"
   xmlns:rdf="http://www.w3.org/1999/02/22-rdf-syntax-ns#"
   xmlns:svg="http://www.w3.org/2000/svg"
   xmlns="http://www.w3.org/2000/svg"
   version="1.1"
   width="64"
   height="64"
   id="svg3212">
  <defs
     id="defs3214" />
  <metadata
     id="metadata3217">
    <rdf:RDF>
      <cc:Work
         rdf:about="">
        <dc:format>image/svg+xml</dc:format>
        <dc:type
           rdf:resource="http://purl.org/dc/dcmitype/StillImage" />
        <dc:title></dc:title>
      </cc:Work>
    </rdf:RDF>
  </metadata>
  <g
     id="layer1">
    <g
       transform="matrix(1.25,0,0,-1.25,6.56375,47.981875)"
       id="g24">
      <path
         d="m 0,0 c 3.695,-2.369 8.084,-3.752 12.799,-3.752 15.503,0 24.261,13.094 23.733,24.838 1.631,1.177 3.047,2.647 4.166,4.322 -1.498,-0.664 -3.107,-1.113 -4.796,-1.314 1.724,1.032 3.048,2.669 3.671,4.619 -1.613,-0.957 -3.4,-1.652 -5.302,-2.026 -1.522,1.623 -3.692,2.636 -6.094,2.636 -5.389,0 -9.351,-5.029 -8.134,-10.253 C 13.104,19.419 6.951,22.743 2.834,27.795 0.646,24.042 1.699,19.132 5.418,16.647 4.049,16.69 2.761,17.066 1.635,17.691 1.545,13.823 4.316,10.206 8.332,9.398 7.157,9.079 5.87,9.006 4.562,9.256 5.624,5.938 8.708,3.525 12.361,3.458 8.852,0.706 4.43,-0.522 0,0"
         id="path26"
         style="fill:#ffffff;fill-opacity:1;fill-rule:nonzero;stroke:none" />
    </g>
  </g>
</svg>
